<svg width="24" height="16" viewBox="0 0 24 16" fill="none" xmlns="http://www.w3.org/2000/svg">
<path d="M0 4.66667C0 3.5616 0.451529 2.50179 1.25526 1.72039C2.05898 0.938987 3.14907 0.5 4.28571 0.5H19.7143C20.8509 0.5 21.941 0.938987 22.7447 1.72039C23.5485 2.50179 24 3.5616 24 4.66667V11.3333C24 11.8805 23.8891 12.4223 23.6738 12.9278C23.4584 13.4334 23.1427 13.8927 22.7447 14.2796C22.3468 14.6665 21.8743 14.9734 21.3544 15.1828C20.8344 15.3922 20.2771 15.5 19.7143 15.5H4.28571C3.14907 15.5 2.05898 15.061 1.25526 14.2796C0.451529 13.4982 0 12.4384 0 11.3333V4.66667ZM4.28571 2.16667C3.60373 2.16667 2.94968 2.43006 2.46744 2.8989C1.9852 3.36774 1.71429 4.00363 1.71429 4.66667V11.3333C1.71429 11.9964 1.9852 12.6323 2.46744 13.1011C2.94968 13.5699 3.60373 13.8333 4.28571 13.8333H19.7143C20.3963 13.8333 21.0503 13.5699 21.5326 13.1011C22.0148 12.6323 22.2857 11.9964 22.2857 11.3333V4.66667C22.2857 4.00363 22.0148 3.36774 21.5326 2.8989C21.0503 2.43006 20.3963 2.16667 19.7143 2.16667H4.28571ZM10.2857 8C10.2857 7.77899 10.376 7.56702 10.5368 7.41074C10.6975 7.25446 10.9155 7.16667 11.1429 7.16667H18.8571C19.0845 7.16667 19.3025 7.25446 19.4632 7.41074C19.624 7.56702 19.7143 7.77899 19.7143 8C19.7143 8.22101 19.624 8.43297 19.4632 8.58926C19.3025 8.74554 19.0845 8.83333 18.8571 8.83333H11.1429C10.9155 8.83333 10.6975 8.74554 10.5368 8.58926C10.376 8.43297 10.2857 8.22101 10.2857 8ZM8.57143 8C8.57143 8.66304 8.30051 9.29893 7.81827 9.76777C7.33604 10.2366 6.68199 10.5 6 10.5C5.31801 10.5 4.66396 10.2366 4.18173 9.76777C3.69949 9.29893 3.42857 8.66304 3.42857 8C3.42857 7.33696 3.69949 6.70107 4.18173 6.23223C4.66396 5.76339 5.31801 5.5 6 5.5C6.68199 5.5 7.33604 5.76339 7.81827 6.23223C8.30051 6.70107 8.57143 7.33696 8.57143 8Z" fill="#888888"/>
</svg>
