<svg width="25" height="20" viewBox="0 0 25 20" fill="none" xmlns="http://www.w3.org/2000/svg">
<path fill-rule="evenodd" clip-rule="evenodd" d="M7.8125 0.769172C7.8125 0.565175 7.89481 0.369533 8.04132 0.225285C8.18784 0.0810375 8.38655 0 8.59375 0C9.94063 0 11.0516 0.441504 11.8125 0.870702C12.0844 1.023 12.3141 1.17529 12.5 1.31067C12.6859 1.17529 12.9156 1.023 13.1875 0.870702C14.1654 0.310216 15.2747 0.0101345 16.4062 0C16.6135 0 16.8122 0.0810375 16.9587 0.225285C17.1052 0.369533 17.1875 0.565175 17.1875 0.769172C17.1875 0.973169 17.1052 1.16881 16.9587 1.31306C16.8122 1.45731 16.6135 1.53834 16.4062 1.53834C15.4094 1.53834 14.5672 1.86601 13.9625 2.20598C13.7242 2.33971 13.4965 2.49089 13.2812 2.65826V9.23006H14.0625C14.2697 9.23006 14.4684 9.3111 14.6149 9.45534C14.7614 9.59959 14.8438 9.79523 14.8438 9.99923C14.8438 10.2032 14.7614 10.3989 14.6149 10.5431C14.4684 10.6874 14.2697 10.7684 14.0625 10.7684H13.2812V17.3402C13.4375 17.4633 13.6687 17.6279 13.9625 17.7925C14.5672 18.1325 15.4094 18.4601 16.4062 18.4601C16.6135 18.4601 16.8122 18.5412 16.9587 18.6854C17.1052 18.8297 17.1875 19.0253 17.1875 19.2293C17.1875 19.4333 17.1052 19.6289 16.9587 19.7732C16.8122 19.9174 16.6135 19.9985 16.4062 19.9985C15.2747 19.9883 14.1654 19.6882 13.1875 19.1278C12.9507 18.9941 12.7213 18.8482 12.5 18.6909C12.2788 18.8487 12.0493 18.9951 11.8125 19.1293C10.8346 19.6898 9.72526 19.9899 8.59375 20C8.38655 20 8.18784 19.919 8.04132 19.7747C7.89481 19.6305 7.8125 19.4348 7.8125 19.2308C7.8125 19.0268 7.89481 18.8312 8.04132 18.6869C8.18784 18.5427 8.38655 18.4617 8.59375 18.4617C9.59062 18.4617 10.4328 18.134 11.0375 17.794C11.3313 17.6294 11.5609 17.4648 11.7188 17.3417V10.7684H10.9375C10.7303 10.7684 10.5316 10.6874 10.3851 10.5431C10.2386 10.3989 10.1562 10.2032 10.1562 9.99923C10.1562 9.79523 10.2386 9.59959 10.3851 9.45534C10.5316 9.3111 10.7303 9.23006 10.9375 9.23006H11.7188V2.65826C11.5035 2.49089 11.2758 2.33971 11.0375 2.20598C10.2956 1.77841 9.45338 1.54832 8.59375 1.53834C8.38655 1.53834 8.18784 1.45731 8.04132 1.31306C7.89481 1.16881 7.8125 0.973169 7.8125 0.769172Z" fill="#888888"/>
<path d="M15.625 5.3842H21.875C22.2894 5.3842 22.6868 5.54628 22.9799 5.83477C23.2729 6.12327 23.4375 6.51455 23.4375 6.92254V13.0759C23.4375 13.4839 23.2729 13.8752 22.9799 14.1637C22.6868 14.4522 22.2894 14.6143 21.875 14.6143H15.625V16.1526H21.875C22.7038 16.1526 23.4987 15.8285 24.0847 15.2515C24.6708 14.6745 25 13.8919 25 13.0759V6.92254C25 6.10656 24.6708 5.32399 24.0847 4.747C23.4987 4.17001 22.7038 3.84586 21.875 3.84586H15.625V5.3842ZM9.375 5.3842V3.84586H3.125C2.2962 3.84586 1.50134 4.17001 0.915291 4.747C0.32924 5.32399 0 6.10656 0 6.92254V13.0759C0 13.8919 0.32924 14.6745 0.915291 15.2515C1.50134 15.8285 2.2962 16.1526 3.125 16.1526H9.375V14.6143H3.125C2.7106 14.6143 2.31317 14.4522 2.02015 14.1637C1.72712 13.8752 1.5625 13.4839 1.5625 13.0759V6.92254C1.5625 6.51455 1.72712 6.12327 2.02015 5.83477C2.31317 5.54628 2.7106 5.3842 3.125 5.3842H9.375Z" fill="#888888"/>
</svg>
