<svg width="20" height="20" viewBox="0 0 20 20" fill="none" xmlns="http://www.w3.org/2000/svg">
<path d="M18.8889 6.66667C19.1836 6.66667 19.4662 6.5496 19.6746 6.34123C19.8829 6.13286 20 5.85024 20 5.55556V1.11111C20 0.816426 19.8829 0.533811 19.6746 0.325437C19.4662 0.117063 19.1836 0 18.8889 0H14.4444C14.1498 0 13.8671 0.117063 13.6588 0.325437C13.4504 0.533811 13.3333 0.816426 13.3333 1.11111V2.22222H6.66667V1.11111C6.66667 0.816426 6.5496 0.533811 6.34123 0.325437C6.13286 0.117063 5.85024 0 5.55556 0H1.11111C0.816426 0 0.533811 0.117063 0.325437 0.325437C0.117063 0.533811 0 0.816426 0 1.11111V5.55556C0 5.85024 0.117063 6.13286 0.325437 6.34123C0.533811 6.5496 0.816426 6.66667 1.11111 6.66667H2.22222V13.3333H1.11111C0.816426 13.3333 0.533811 13.4504 0.325437 13.6588C0.117063 13.8671 0 14.1498 0 14.4444V18.8889C0 19.1836 0.117063 19.4662 0.325437 19.6746C0.533811 19.8829 0.816426 20 1.11111 20H5.55556C5.85024 20 6.13286 19.8829 6.34123 19.6746C6.5496 19.4662 6.66667 19.1836 6.66667 18.8889V17.7778H13.3333V18.8889C13.3333 19.1836 13.4504 19.4662 13.6588 19.6746C13.8671 19.8829 14.1498 20 14.4444 20H18.8889C19.1836 20 19.4662 19.8829 19.6746 19.6746C19.8829 19.4662 20 19.1836 20 18.8889V14.4444C20 14.1498 19.8829 13.8671 19.6746 13.6588C19.4662 13.4504 19.1836 13.3333 18.8889 13.3333H17.7778V6.66667H18.8889ZM15.5556 2.22222H17.7778V4.44444H15.5556V2.22222ZM2.22222 2.22222H4.44444V4.44444H2.22222V2.22222ZM4.44444 17.7778H2.22222V15.5556H4.44444V17.7778ZM17.7778 17.7778H15.5556V15.5556H17.7778V17.7778ZM15.5556 13.3333H14.4444C14.1498 13.3333 13.8671 13.4504 13.6588 13.6588C13.4504 13.8671 13.3333 14.1498 13.3333 14.4444V15.5556H6.66667V14.4444C6.66667 14.1498 6.5496 13.8671 6.34123 13.6588C6.13286 13.4504 5.85024 13.3333 5.55556 13.3333H4.44444V6.66667H5.55556C5.85024 6.66667 6.13286 6.5496 6.34123 6.34123C6.5496 6.13286 6.66667 5.85024 6.66667 5.55556V4.44444H13.3333V5.55556C13.3333 5.85024 13.4504 6.13286 13.6588 6.34123C13.8671 6.5496 14.1498 6.66667 14.4444 6.66667H15.5556V13.3333Z" fill="#888888"/>
</svg>
