<svg width="23" height="20" viewBox="0 0 23 20" fill="none" xmlns="http://www.w3.org/2000/svg">
<path d="M2.15855 2.14286C2.15855 1.57454 2.38567 1.02949 2.78995 0.627628C3.19423 0.225765 3.74254 0 4.31427 0H18.6857C19.2575 0 19.8058 0.225765 20.2101 0.627628C20.6143 1.02949 20.8414 1.57454 20.8414 2.14286V7.23286C21.4591 7.39071 22.0064 7.74826 22.3971 8.24921C22.7879 8.75017 23 9.36609 23 10C23 10.6339 22.7879 11.2498 22.3971 11.7508C22.0064 12.2517 21.4591 12.6093 20.8414 12.7671V17.8571C20.8414 18.4255 20.6143 18.9705 20.2101 19.3724C19.8058 19.7742 19.2575 20 18.6857 20H4.31427C3.74254 20 3.19423 19.7742 2.78995 19.3724C2.38567 18.9705 2.15855 18.4255 2.15855 17.8571V12.7671C1.54092 12.6093 0.99364 12.2517 0.602861 11.7508C0.212083 11.2498 0 10.6339 0 10C0 9.36609 0.212083 8.75017 0.602861 8.24921C0.99364 7.74826 1.54092 7.39071 2.15855 7.23286V2.14286ZM3.5957 7.23286C4.21333 7.39071 4.76061 7.74826 5.15139 8.24921C5.54217 8.75017 5.75425 9.36609 5.75425 10C5.75425 10.6339 5.54217 11.2498 5.15139 11.7508C4.76061 12.2517 4.21333 12.6093 3.5957 12.7671V17.8571C3.5957 18.0466 3.67141 18.2283 3.80616 18.3622C3.94092 18.4962 4.12369 18.5714 4.31427 18.5714H18.6857C18.8763 18.5714 19.0591 18.4962 19.1938 18.3622C19.3286 18.2283 19.4043 18.0466 19.4043 17.8571V12.7671C18.7867 12.6093 18.2394 12.2517 17.8486 11.7508C17.4578 11.2498 17.2457 10.6339 17.2457 10C17.2457 9.36609 17.4578 8.75017 17.8486 8.24921C18.2394 7.74826 18.7867 7.39071 19.4043 7.23286V2.14286C19.4043 1.95342 19.3286 1.77174 19.1938 1.63778C19.0591 1.50383 18.8763 1.42857 18.6857 1.42857H4.31427C4.12369 1.42857 3.94092 1.50383 3.80616 1.63778C3.67141 1.77174 3.5957 1.95342 3.5957 2.14286V7.23286ZM2.87713 8.57143C2.49597 8.57143 2.13043 8.72194 1.86091 8.98985C1.59139 9.25776 1.43998 9.62112 1.43998 10C1.43998 10.3789 1.59139 10.7422 1.86091 11.0102C2.13043 11.2781 2.49597 11.4286 2.87713 11.4286C3.25828 11.4286 3.62383 11.2781 3.89334 11.0102C4.16286 10.7422 4.31427 10.3789 4.31427 10C4.31427 9.62112 4.16286 9.25776 3.89334 8.98985C3.62383 8.72194 3.25828 8.57143 2.87713 8.57143ZM20.1229 8.57143C19.7417 8.57143 19.3762 8.72194 19.1067 8.98985C18.8371 9.25776 18.6857 9.62112 18.6857 10C18.6857 10.3789 18.8371 10.7422 19.1067 11.0102C19.3762 11.2781 19.7417 11.4286 20.1229 11.4286C20.504 11.4286 20.8696 11.2781 21.1391 11.0102C21.4086 10.7422 21.56 10.3789 21.56 10C21.56 9.62112 21.4086 9.25776 21.1391 8.98985C20.8696 8.72194 20.504 8.57143 20.1229 8.57143Z" fill="black"/>
<path d="M16.4351 4.28571H6.56481L6.46996 7.13429H7.0247C7.3265 5.34571 7.90423 5.06857 10.1476 4.99857L10.6406 4.98286V14.0443C10.6406 14.8114 10.4739 14.9943 9.13299 15.1129V15.7143H13.867V15.1129C12.5189 14.9943 12.3522 14.8129 12.3522 14.0443V4.98286L12.8523 4.99714C15.0943 5.06857 15.6734 5.34571 15.9752 7.13429H16.53L16.4351 4.28571Z" fill="black"/>
</svg>
