<svg width="25" height="20" viewBox="0 0 25 20" fill="none" xmlns="http://www.w3.org/2000/svg">
<path d="M19.9412 6.25641C17.8879 6.25641 16.0533 7.49026 15.2674 9.4L14.9402 10.1805L16.9487 11.0615L17.2754 10.281C17.7186 9.2041 18.7649 8.50923 19.9412 8.50923C21.6619 8.50923 22.8177 9.70256 22.8177 11.479V11.5969C21.7161 11.6272 20.3949 11.7021 19.2186 11.8451C16.5035 12.1749 14.883 13.7031 14.883 15.9333C14.883 17.121 15.3172 18.1897 16.1061 18.938C16.8466 19.641 17.8561 20 18.9497 20C20.4866 20 21.8132 19.6241 22.8177 18.839V20H25V11.479C25 8.45282 22.8725 6.25641 19.9412 6.25641ZM18.9497 17.7985C18.0802 17.7985 17.0647 17.2938 17.0647 15.9333C17.0647 15.3872 17.255 15.0046 17.6813 14.6928C18.0966 14.3892 18.7331 14.1723 19.4741 14.0826C20.5588 13.9508 21.7804 13.88 22.8108 13.8508C22.7032 16.4913 21.4377 17.7985 18.9497 17.7985ZM4.44472 14.2497H10.6947L12.7958 20H15.1394L7.51992 0L0 20H2.34363L4.44472 14.2497ZM7.56972 5.78L9.87301 12H5.26643L7.56972 5.78Z" fill="black"/>
</svg>
